<svg xmlns="http://www.w3.org/2000/svg" width="75.296" height="53.437" viewBox="0 0 75.296 53.437">
  <path id="Logo" d="M2.19-21H6.4v10.52a12.787,12.787,0,0,1,7.628,0,11.519,11.519,0,0,0,7.3,0V-21h4.208V14.068H21.327V-6.572a23.865,23.865,0,0,1-7.3-.5,14.779,14.779,0,0,0-7.628.5v20.64H2.19ZM51.435,28.529v3.908H27.689V26.425a10.106,10.106,0,0,1,.8-4.183,8.74,8.74,0,0,1,2.279-3.056,12.723,12.723,0,0,1,3.582-2.129A30.9,30.9,0,0,1,39.111,15.6q4.459-1,6.437-2.856A6,6,0,0,0,47.528,8.19v-.3a8.064,8.064,0,0,0-.451-2.655A6.687,6.687,0,0,0,43.244,1.2,9.024,9.024,0,0,0,39.713.575,7.658,7.658,0,0,0,33.726,2.93,8.981,8.981,0,0,0,31.6,9.192v2.2H27.389v-2.5a13.381,13.381,0,0,1,.8-4.609A11.647,11.647,0,0,1,30.545.375,11.157,11.157,0,0,1,34.4-2.331a13.212,13.212,0,0,1,5.31-1,13.912,13.912,0,0,1,5.31.927A11.118,11.118,0,0,1,48.78.049a9.833,9.833,0,0,1,2.229,3.457,11.075,11.075,0,0,1,.726,3.933v.9a9.961,9.961,0,0,1-2.5,6.838q-2.5,2.83-8.016,4.033a18.251,18.251,0,0,0-7.064,2.78A5.957,5.957,0,0,0,31.9,27.026v1.5Zm1.4-35.9c-.024-7.254,24.155-6.891,24.6-.346-.044-.2.048.069.048.346V.441q0,7.014-3.256,10.671t-9.068,3.657q-5.811,0-9.068-3.657T52.838.441ZM65.162,10.962a7,7,0,0,0,6.087-2.83Q73.278,5.3,73.278.141V-7.073s-2.493,2.549-8.116,2.678a14.249,14.249,0,0,1-4.871-.729,7.6,7.6,0,0,1-3.244-1.949V.141q0,5.16,2.029,7.99A7,7,0,0,0,65.162,10.962Z" transform="translate(-2.19 21)" fill="#1610af"/>
</svg>
